<svg width="0" height="0" class="hidden">
  <symbol fill="#fff" viewBox="0 0 512 512" xmlns="http://www.w3.org/2000/svg" id="shutter">
    <path d="M212.51 26.086c-.047.18-.094.36-.145.535-.3 1.047-19.172 67.484-29.52 144.97 37.844-23.617 86.285-46.074 144.55-66.973 52.855-18.953 94.078-29.445 98.191-30.477l8.153-2.351C386.98 26.595 325.809 1.18 260.459.04a259.736 259.736 0 0 0-42.176 2.718zM34.879 179.04c.133.125.266.258.395.39.3.313 30.613 31.642 73.734 68.149 12.703 10.754 25.215 20.855 37.477 30.273-1.563-44.641 3.207-97.922 14.266-158.96 10.012-55.258 21.539-96.203 22.699-100.28l2.199-8.868C145.692 21.1 108.89 42.178 78.169 71.85 51.298 97.8 30.84 128.622 17.603 162.396zm398.761-76a9.97 9.97 0 0 1-.535.145c-1.063.265-68.34 17.219-140.81 47.129 100.54 53.492 199.28 154.67 205.99 161.61l6.199 5.972c4.59-18.582 7.125-37.812 7.469-57.422 1.05-60.172-18.59-117.53-55.691-163.95zM78.434 408.97c.176-.05.355-.102.531-.145 1.059-.261 68.133-17.164 140.47-46.988-100.39-53.555-198.88-154.47-205.56-161.39l-6.41-6.171a258.03 258.03 0 0 0-7.426 57.246c-1.047 60.184 18.598 117.55 55.715 163.98zm398.856-75.63a12.39 12.39 0 0 1-.39-.395c-.301-.312-30.614-31.637-73.739-68.148-12.688-10.742-25.184-20.832-37.434-30.242 1.563 44.645-3.207 97.926-14.266 158.97-10.016 55.266-21.543 96.215-22.703 100.28l-2.07 8.356c39.828-11.383 76.512-32.418 107.15-62.008 26.832-25.91 47.262-56.68 60.504-90.387zM299.7 486.32c.047-.18.094-.355.145-.535.3-1.047 19.258-67.785 29.59-145.5-37.875 23.664-86.387 46.164-144.76 67.102-52.863 18.957-94.086 29.449-98.191 30.48l-8.2 2.36c46.754 45.18 107.92 70.585 173.25 71.726a259.036 259.036 0 0 0 42.489-2.746z"></path>
  </symbol>
  <symbol viewBox="0 -28 512.00001 512" xmlns="http://www.w3.org/2000/svg" id="like">
    <path d="m512 153.867188c0 43.292968-16.132812 82.941406-50.773438 124.734374-30.996093 37.398438-75.53125 75.355469-127.113281 119.308594-17.625 15.015625-37.597656 32.039063-58.320312 50.171875-5.429688 4.75-12.386719 7.386719-19.613281 7.429688h-.179688c-7.289062 0-14.316406-2.640625-19.792969-7.4375-20.683593-18.085938-40.625-35.089844-58.21875-50.085938l-.089843-.066406c-51.574219-43.957031-96.128907-81.921875-127.117188-119.320313-34.648438-41.792968-50.78125-81.441406-50.78125-124.734374 0-42.066407 14.425781-80.882813 40.617188-109.292969 26.507812-28.75 62.875-44.574219 102.414062-44.574219 29.558594 0 56.617188 9.335938 80.449219 27.761719 12.027343 9.304687 22.921875 20.679687 32.519531 33.964843l.179688-.238281c9.558593-13.183593 20.394531-24.480469 32.347656-33.726562 23.824218-18.425781 50.894531-27.761719 80.441406-27.761719 39.546875 0 75.914062 15.824219 102.414062 44.574219 26.191407 28.410156 40.617188 67.214843 40.617188 109.292969zm0 0" fill="#ff5e95"/>
    <path d="m512 153.867188c0 43.292968-16.132812 82.941406-50.773438 124.734374-30.996093 37.398438-75.53125 75.355469-127.113281 119.308594-17.625 15.015625-37.597656 32.039063-58.320312 50.171875-5.429688 4.75-12.386719 7.386719-19.613281 7.429688v-394.023438c9.558593-13.183593 20.394531-24.480469 32.347656-33.726562 23.824218-18.425781 50.894531-27.761719 80.441406-27.761719 39.546875 0 75.914062 15.824219 102.414062 44.574219 26.191407 28.410156 40.617188 67.214843 40.617188 109.292969zm0 0" fill="#ff3980"/>
  </symbol>
  <symbol viewBox="0 -28 512.00002 512" xmlns="http://www.w3.org/2000/svg" id="_like">
    <path d="m471.382812 44.578125c-26.503906-28.746094-62.871093-44.578125-102.410156-44.578125-29.554687 0-56.621094 9.34375-80.449218 27.769531-12.023438 9.300781-22.917969 20.679688-32.523438 33.960938-9.601562-13.277344-20.5-24.660157-32.527344-33.960938-23.824218-18.425781-50.890625-27.769531-80.445312-27.769531-39.539063 0-75.910156 15.832031-102.414063 44.578125-26.1875 28.410156-40.613281 67.222656-40.613281 109.292969 0 43.300781 16.136719 82.9375 50.78125 124.742187 30.992188 37.394531 75.535156 75.355469 127.117188 119.3125 17.613281 15.011719 37.578124 32.027344 58.308593 50.152344 5.476563 4.796875 12.503907 7.4375 19.792969 7.4375 7.285156 0 14.316406-2.640625 19.785156-7.429687 20.730469-18.128907 40.707032-35.152344 58.328125-50.171876 51.574219-43.949218 96.117188-81.90625 127.109375-119.304687 34.644532-41.800781 50.777344-81.4375 50.777344-124.742187 0-42.066407-14.425781-80.878907-40.617188-109.289063zm0 0"/>
  </symbol>
  <symbol viewBox="0 0 512 512" xmlns="http://www.w3.org/2000/svg" id="logo">
    <path d="m212.51 26.086c-0.046874 0.17969-0.09375 0.35937-0.14453 0.53516-0.30078 1.0469-19.172 67.484-29.52 144.97 37.844-23.617 86.285-46.074 144.55-66.973 52.855-18.953 94.078-29.445 98.191-30.477l8.1523-2.3516c-46.758-45.195-107.93-70.609-173.28-71.75-14.254-0.24219-28.348 0.6875-42.176 2.7187z"/>
    <path d="m34.879 179.04c0.13281 0.125 0.26562 0.25781 0.39453 0.39062 0.30078 0.3125 30.613 31.641 73.734 68.148 12.703 10.754 25.215 20.855 37.477 30.273-1.5625-44.641 3.207-97.922 14.266-158.96 10.012-55.258 21.539-96.203 22.699-100.28l2.1992-8.8672c-39.957 11.355-76.758 32.434-107.48 62.105-26.871 25.949-47.328 56.773-60.566 90.547z"/>
    <path d="m433.64 103.04c-0.17969 0.054688-0.35938 0.10156-0.53516 0.14453-1.0625 0.26562-68.34 17.219-140.81 47.129 100.54 53.492 199.28 154.67 205.99 161.61l6.1992 5.9727c4.5898-18.582 7.125-37.812 7.4688-57.422 1.0508-60.172-18.59-117.53-55.691-163.95z"/>
    <path d="m78.434 408.97c0.17578-0.050781 0.35547-0.10156 0.53125-0.14453 1.0586-0.26172 68.133-17.164 140.47-46.988-100.39-53.555-198.88-154.47-205.56-161.39l-6.4102-6.1719c-4.5625 18.527-7.0859 37.699-7.4258 57.246-1.0469 60.184 18.598 117.55 55.715 163.98z"/>
    <path d="m477.29 333.34c-0.13281-0.12891-0.26562-0.26172-0.39062-0.39453-0.30078-0.3125-30.613-31.637-73.738-68.148-12.688-10.742-25.184-20.832-37.434-30.242 1.5625 44.645-3.207 97.926-14.266 158.97-10.016 55.266-21.543 96.215-22.703 100.28l-2.0703 8.3555c39.828-11.383 76.512-32.418 107.15-62.008 26.832-25.91 47.262-56.68 60.504-90.387z"/>
    <path d="m299.7 486.32c0.046875-0.17969 0.09375-0.35547 0.14453-0.53516 0.30078-1.0469 19.258-67.785 29.59-145.5-37.875 23.664-86.387 46.164-144.76 67.102-52.863 18.957-94.086 29.449-98.191 30.48l-8.1992 2.3594c46.754 45.18 107.92 70.586 173.25 71.727 1.5352 0.023437 3.0586 0.039062 4.5938 0.039062 12.793 0 25.449-0.94531 37.895-2.7852z"/>
  </symbol>
  <symbol viewBox="0 0 329.27 329" xmlns="http://www.w3.org/2000/svg" id="close">
    <path d="m194.8 164.77 128.21-128.21c8.3438-8.3398 8.3438-21.824 0-30.164-8.3398-8.3398-21.824-8.3398-30.164 0l-128.21 128.21-128.21-128.21c-8.3438-8.3398-21.824-8.3398-30.164 0-8.3438 8.3398-8.3438 21.824 0 30.164l128.21 128.21-128.21 128.21c-8.3438 8.3398-8.3438 21.824 0 30.164 4.1562 4.1602 9.6211 6.25 15.082 6.25 5.4609 0 10.922-2.0898 15.082-6.25l128.21-128.21 128.21 128.21c4.1602 4.1602 9.6211 6.25 15.082 6.25 5.4609 0 10.922-2.0898 15.082-6.25 8.3438-8.3398 8.3438-21.824 0-30.164z"/>
  </symbol>
  <symbol enable-background="new 0 0 512 512" viewBox="0 0 512 512" xmlns="http://www.w3.org/2000/svg" id="user">
    <path d="m256 0c-141.16 0-256 114.84-256 256s114.84 256 256 256 256-114.84 256-256-114.84-256-256-256zm0 482c-124.62 0-226-101.38-226-226s101.38-226 226-226 226 101.38 226 226-101.38 226-226 226z"/>
    <path d="m256 270c57.897 0 105-47.103 105-105s-47.103-105-105-105-105 47.103-105 105 47.103 105 105 105zm0-180c41.355 0 75 33.645 75 75s-33.645 75-75 75-75-33.645-75-75 33.645-75 75-75z"/>
    <path d="m424.65 335.44c-19.933-22.525-48.6-35.443-78.649-35.443h-180c-30.049 0-58.716 12.918-78.649 35.443l-7.11 8.035 5.306 9.325c34.817 61.187 100.13 99.197 170.45 99.197s135.64-38.01 170.45-99.198l5.306-9.325zm-168.65 86.557c-55.736 0-107.76-28.197-138.38-74.295 13.452-11.352 30.579-17.705 48.383-17.705h180c17.804 0 34.931 6.353 48.383 17.705-30.622 46.098-82.647 74.295-138.38 74.295z"/>
  </symbol>
  <symbol viewBox="0 0 512 512" xmlns="http://www.w3.org/2000/svg" id="login">
    <path d="m218.67 240h-202.67c-8.832 0-16-7.168-16-16s7.168-16 16-16h202.67c8.832 0 16 7.168 16 16s-7.168 16-16 16z"/>
    <path d="m138.67 320c-4.0977 0-8.1914-1.5586-11.309-4.6914-6.25-6.2539-6.25-16.387 0-22.637l68.695-68.691-68.695-68.672c-6.25-6.2539-6.25-16.387 0-22.637s16.383-6.25 22.637 0l80 80c6.25 6.25 6.25 16.383 0 22.637l-80 80c-3.1367 3.1328-7.2344 4.6914-11.328 4.6914z"/>
    <path d="m341.33 512c-23.531 0-42.664-19.137-42.664-42.668v-384c0-18.238 11.605-34.516 28.883-40.512l128.17-42.73c28.672-8.7891 56.277 12.48 56.277 40.578v384c0 18.219-11.605 34.473-28.863 40.488l-128.21 42.754c-4.6719 1.4492-9 2.0898-13.59 2.0898zm128-480c-1.3867 0-2.5586 0.17188-3.8164 0.55469l-127.64 42.559c-4.1836 1.4531-7.2109 5.6758-7.2109 10.219v384c0 7.2773 7.8906 12.184 14.484 10.113l127.64-42.559c4.1602-1.4531 7.2109-5.6758 7.2109-10.219v-384c0-5.8672-4.7773-10.668-10.668-10.668z"/>
    <path d="m186.67 106.67c-8.832 0-16-7.168-16-16v-32c0-32.363 26.301-58.668 58.664-58.668h240c8.832 0 16 7.168 16 16s-7.168 16-16 16h-240c-14.699 0-26.664 11.969-26.664 26.668v32c0 8.832-7.168 16-16 16z"/>
    <path d="m314.67 448h-85.336c-32.363 0-58.664-26.305-58.664-58.668v-32c0-8.832 7.168-16 16-16s16 7.168 16 16v32c0 14.699 11.965 26.668 26.664 26.668h85.336c8.832 0 16 7.168 16 16s-7.168 16-16 16z"/>
  </symbol>
    <symbol viewBox="0 0 512.02 512" xmlns="http://www.w3.org/2000/svg" id="logout">
    <path d="m496 240.01h-202.67c-8.832 0-16-7.168-16-16 0-8.832 7.168-16 16-16h202.67c8.832 0 16 7.168 16 16 0 8.832-7.168 16-16 16z"/>
    <path d="m416 320.01c-4.0977 0-8.1914-1.5586-11.309-4.6914-6.25-6.2539-6.25-16.387 0-22.637l68.695-68.691-68.695-68.695c-6.25-6.25-6.25-16.383 0-22.633 6.2539-6.2539 16.387-6.2539 22.637 0l80 80c6.25 6.25 6.25 16.383 0 22.633l-80 80c-3.1367 3.1562-7.2305 4.7148-11.328 4.7148z"/>
    <path d="m170.67 512.01c-4.5664 0-8.8984-0.64062-13.227-1.9844l-128.39-42.773c-17.469-6.1016-29.055-22.379-29.055-40.574v-384c0-23.531 19.137-42.668 42.668-42.668 4.5625 0 8.8945 0.64063 13.227 1.9844l128.38 42.773c17.473 6.1016 29.055 22.379 29.055 40.574v384c0 23.531-19.133 42.668-42.664 42.668zm-128-480c-5.8672 0-10.668 4.8008-10.668 10.668v384c0 4.543 3.0508 8.7656 7.4023 10.281l127.79 42.582c0.91797 0.29688 2.1133 0.46875 3.4805 0.46875 5.8672 0 10.664-4.8008 10.664-10.668v-384c0-4.543-3.0508-8.7656-7.4023-10.281l-127.79-42.582c-0.91797-0.29687-2.1133-0.46875-3.4766-0.46875z"/>
    <path d="m325.33 170.68c-8.832 0-16-7.168-16-16v-96c0-14.699-11.965-26.668-26.664-26.668h-240c-8.832 0-16-7.168-16-16 0-8.832 7.168-16 16-16h240c32.363 0 58.664 26.305 58.664 58.668v96c0 8.832-7.168 16-16 16z"/>
    <path d="m282.67 448.01h-85.336c-8.832 0-16-7.168-16-16 0-8.832 7.168-16 16-16h85.336c14.699 0 26.664-11.969 26.664-26.668v-96c0-8.832 7.168-16 16-16s16 7.168 16 16v96c0 32.363-26.301 58.668-58.664 58.668z"/>
  </symbol>
  <symbol viewBox="0 0 54 54" xml:space="preserve" xmlns="http://www.w3.org/2000/svg" id="download">
    <g fill="currentColor">
      <path d="m27 1c14.359 0 26 11.641 26 26s-11.641 26-26 26-26-11.641-26-26 11.641-26 26-26z"/>
      <path d="M27,54C12.112,54,0,41.888,0,27S12.112,0,27,0s27,12.112,27,27S41.888,54,27,54z M27,2    C13.215,2,2,13.215,2,27s11.215,25,25,25s25-11.215,25-25S40.785,2,27,2z"/>
    </g>
    <path d="m27 40.5c-0.552 0-1-0.447-1-1v-26c0-0.553 0.448-1 1-1s1 0.447 1 1v26c0 0.553-0.448 1-1 1z" fill="#fff"/>
    <polygon points="27 41.914 16.293 31.207 17.707 29.793 27 39.086 36.293 29.793 37.707 31.207" fill="#fff"/>
  </symbol>
  <symbol viewBox="0 0 480.1 480.1" xml:space="preserve" xmlns="http://www.w3.org/2000/svg" id="globe">
      <path d="m240.14 0.05c-96.05-0.014-182.86 57.239-220.66 145.54l-2.992 0.992 1.16 3.48c-49.776 122.77 9.393 262.64 132.16 312.42 28.673 11.626 59.324 17.594 90.265 17.577 132.55 0.02 240.02-107.42 240.04-239.96s-107.42-240.02-239.96-240.04zm188.25 361-12.324-12.316v-28.688c0.014-1.238-0.26-2.462-0.8-3.576l-31.2-62.312v-30.112c0-2.674-1.335-5.172-3.56-6.656l-24-16c-1.881-1.256-4.206-1.657-6.4-1.104l-29.392 7.344-49.368-21.184-6.792-47.584 18.824-18.816h40.408l13.6 20.44c1.228 1.838 3.163 3.087 5.344 3.448l48 8c1.286 0.216 2.604 0.111 3.84-0.304l44.208-14.736c37.079 71.155 33.113 156.74-10.388 224.16zm-32.996-282.17-13.008 8.672-36.264-7.256-23.528-7.832c-1.44-0.489-2.99-0.551-4.464-0.176l-29.744 7.432-13.04-4.344 9.664-19.328h27.056c1.241 1e-3 2.465-0.286 3.576-0.84l27.68-13.84c19.062 9.95 36.598 22.582 52.072 37.512zm-242.95-44.968 19.2 12.8c0.944 0.628 2.01 1.048 3.128 1.232l38.768 6.464-3.784 11.32-20.2 6.744c-1.809 0.602-3.344 1.83-4.328 3.464l-22.976 38.288-36.904 22.144-54.4 7.768c-3.943 0.557-6.875 3.93-6.88 7.912v24c0 2.122 0.844 4.156 2.344 5.656l13.656 13.656v13.744l-33.28-22.192-12.072-36.216c22.968-52.48 65.065-94.24 117.73-116.78zm-22.776 262.3-36.16-7.24-13.44-26.808v-18.8l29.808-29.808 11.032 22.072c1.355 2.712 4.128 4.425 7.16 4.424h51.472l21.672 36.12c1.446 2.407 4.048 3.879 6.856 3.88h22.24l-5.6 28.056-30.288 30.288c-1.503 1.499-2.349 3.533-2.352 5.656v20l-28.8 21.6c-2.014 1.511-3.2 3.882-3.2 6.4v28.896l-9.952-3.296-14.048-35.136v-78.464c1e-3 -3.802-2.675-7.08-6.4-7.84zm-24.048 122.98c-75.429-56.589-107.33-154.36-79.784-244.55l6.648 19.936c0.56 1.687 1.666 3.14 3.144 4.128l39.88 26.584-9.096 9.104c-1.5 1.5-2.344 3.534-2.344 5.656v24c-1e-3 1.241 0.286 2.465 0.84 3.576l16 32c1.108 2.21 3.175 3.784 5.6 4.264l33.6 6.712v73.448c-1e-3 1.016 0.192 2.024 0.568 2.968l16 40c0.876 2.185 2.67 3.874 4.904 4.616l24 8c0.802 0.272 1.642 0.412 2.488 0.416 4.418 0 8-3.582 8-8v-36l28.8-21.6c2.014-1.511 3.2-3.882 3.2-6.4v-20.688l29.656-29.656c1.115-1.117 1.875-2.54 2.184-4.088l8-40c0.866-4.333-1.944-8.547-6.277-9.413-0.515-0.103-1.038-0.155-1.563-0.155h-27.472l-21.672-36.12c-1.446-2.407-4.048-3.879-6.856-3.88h-51.056l-13.744-27.576c-1.151-2.302-3.339-3.91-5.88-4.32-2.54-0.439-5.133 0.399-6.936 2.24l-10.384 10.344v-12.688c0-2.122-0.844-4.156-2.344-5.656l-13.656-13.656v-13.752l49.136-7.016c1.055-0.153 2.07-0.515 2.984-1.064l40-24c1.122-0.674 2.062-1.614 2.736-2.736l22.48-37.464 21.192-7.072c2.393-0.785 4.271-2.662 5.056-5.056l8-24c1.386-4.195-0.891-8.72-5.086-10.106-0.387-0.128-0.784-0.226-1.186-0.294l-46.304-7.72-8.136-5.424c50.343-16.386 104.87-14.358 153.86 5.72l-14.616 7.296h-30.112c-3.047-0.017-5.838 1.699-7.2 4.424l-16 32c-1.971 3.954-0.364 8.758 3.59 10.729 0.337 0.168 0.685 0.312 1.042 0.431l24 8c1.44 0.489 2.99 0.551 4.464 0.176l29.744-7.432 21.792 7.256c0.312 0.112 0.633 0.198 0.96 0.256l40 8c2.08 0.424 4.244-2e-3 6.008-1.184l18.208-12.144c8.961 9.981 17.014 20.741 24.064 32.152l-39.36 13.12-42.616-7.104-14.08-21.12c-1.476-2.213-3.956-3.547-6.616-3.56h-48c-2.122 0-4.156 0.844-5.656 2.344l-24 24c-1.782 1.781-2.621 4.298-2.264 6.792l8 56c0.403 2.769 2.223 5.126 4.8 6.216l56 24c1.604 0.695 3.394 0.838 5.088 0.408l28.568-7.144 17.464 11.664v27.72c-0.014 1.238 0.26 2.462 0.8 3.576l31.2 62.312v30.112c0 2.122 0.844 4.156 2.344 5.656l16.736 16.744c-74.223 98.933-214.6 118.96-313.53 44.741z"/>
  </symbol>
  <symbol viewBox="0 0 512 512" xml:space="preserve" xmlns="http://www.w3.org/2000/svg" id="follow">
      <path d="m492 127.5h-18v-18c0-11.046-8.954-20-20-20s-20 8.954-20 20v18h-18c-11.046 0-20 8.954-20 20s8.954 20 20 20h18v18c0 11.046 8.954 20 20 20s20-8.954 20-20v-18h18c11.046 0 20-8.954 20-20s-8.954-20-20-20z"/>
      <path d="m315.41 249.23c30.445-23.52 50.091-60.371 50.091-101.73 0-70.855-57.645-128.5-128.5-128.5s-128.5 57.645-128.5 128.5c0 41.359 19.646 78.211 50.091 101.73-90.298 31.562-158.59 118.2-158.59 223.77 0 11.046 8.954 20 20 20h434c11.046 0 20-8.954 20-20 0-105.6-68.344-192.22-158.59-223.77zm-166.91-101.73c0-48.799 39.701-88.5 88.5-88.5s88.5 39.701 88.5 88.5-39.701 88.5-88.5 88.5-88.5-39.701-88.5-88.5zm-107.49 305.5c10.053-99.27 94.115-177 195.99-177s185.94 77.73 195.99 177h-391.98z"/>
  </symbol>
</svg>
