<?xml version="1.0"?>
<svg xmlns="http://www.w3.org/2000/svg" xmlns:xlink="http://www.w3.org/1999/xlink" version="1.1" id="Capa_1" x="0px" y="0px" viewBox="0 0 612 612" style="enable-background:new 0 0 612 612;" xml:space="preserve" width="512px" height="512px" class=""><g><g>
	<g id="Shutter_-Open-">
		<path d="M498.028,146.214c-29.538-35.498-68.339-62.116-112.092-76.892c-35.277,25.632-70.555,51.262-105.834,76.892    C352.746,146.214,425.386,146.214,498.028,146.214z" data-original="#000000" class="active-path" data-old_color="#000000" fill="#00AF80"/>
		<path d="M555.274,289.602c-3.031-46.081-18.777-90.421-45.488-128.093c-43.606,0-87.211,0-130.817,0    C437.737,204.207,496.506,246.905,555.274,289.602z" data-original="#000000" class="active-path" data-old_color="#000000" fill="#00AF80"/>
		<path d="M449.962,231.994c22.448,69.086,44.895,138.172,67.342,207.259c24.634-39.062,37.956-84.189,38.491-130.367    C520.518,283.256,485.241,257.625,449.962,231.994z" data-original="#000000" class="active-path" data-old_color="#000000" fill="#00AF80"/>
		<path d="M398.626,538.007c42.889-17.122,80.193-45.799,107.767-82.845c-13.475-41.471-26.949-82.942-40.424-124.415    C443.52,399.833,421.072,468.919,398.626,538.007z" data-original="#000000" class="active-path" data-old_color="#000000" fill="#00AF80"/>
		<path d="M244.565,548.141c44.762,11.357,91.797,10.083,135.88-3.678c13.475-41.471,26.95-82.943,40.424-124.415    C362.102,462.746,303.333,505.443,244.565,548.141z" data-original="#000000" class="active-path" data-old_color="#000000" fill="#00AF80"/>
		<path d="M113.972,465.786c29.538,35.499,68.339,62.116,112.092,76.892c35.277-25.63,70.555-51.262,105.834-76.892    C259.254,465.786,186.614,465.786,113.972,465.786z" data-original="#000000" class="active-path" data-old_color="#000000" fill="#00AF80"/>
		<path d="M56.726,322.398c3.031,46.081,18.777,90.421,45.488,128.093c43.606,0,87.211,0,130.817,0    C174.263,407.793,115.494,365.095,56.726,322.398z" data-original="#000000" class="active-path" data-old_color="#000000" fill="#00AF80"/>
		<path d="M94.695,172.746c-24.634,39.063-37.958,84.189-38.491,130.367c35.277,25.63,70.555,51.262,105.834,76.892    C139.59,310.92,117.142,241.834,94.695,172.746z" data-original="#000000" class="active-path" data-old_color="#000000" fill="#00AF80"/>
		<path d="M213.374,73.993c-42.889,17.124-80.193,45.8-107.767,82.845c13.475,41.471,26.949,82.943,40.424,124.415    C168.48,212.167,190.928,143.079,213.374,73.993z" data-original="#000000" class="active-path" data-old_color="#000000" fill="#00AF80"/>
		<path d="M367.435,63.859c-44.762-11.357-91.797-10.083-135.88,3.678c-13.475,41.471-26.95,82.943-40.424,124.415    C249.898,149.254,308.667,106.557,367.435,63.859z" data-original="#000000" class="active-path" data-old_color="#000000" fill="#00AF80"/>
		<path d="M306,0C137.001,0,0,137.001,0,306s137.001,306,306,306s306-137.001,306-306S474.999,0,306,0z M504.711,504.711    C451.633,557.789,381.064,587.02,306,587.02s-145.634-29.231-198.711-82.309S24.98,381.064,24.98,306    s29.231-145.634,82.309-198.711S230.936,24.98,306,24.98s145.633,29.231,198.711,82.309S587.02,230.936,587.02,306    S557.789,451.633,504.711,504.711z" data-original="#000000" class="active-path" data-old_color="#000000" fill="#00AF80"/>
	</g>
</g></g> </svg>
